<svg version="1.2" xmlns="http://www.w3.org/2000/svg" viewBox="0 0 1080 1080" width="1080" height="1080">
	<title>Nouveau projet</title>
	<style>
		.s0 { fill: #ffffff;stroke: #70a8d0;stroke-width: 10 } 
		.s1 { fill: #666666 } 
		.s2 { fill: #eb6836 } 
		.s3 { fill: #f7d04a } 
		.s4 { fill: #fd9d7e } 
		.s5 { fill: #62c9cc } 
		.s6 { fill: #50a9a9 } 
		.s7 { fill: #d4f2e8 } 
	</style>
	<path id="Forme 1" class="s0" d="m830.4 926l-579.8 0.4-179.5-551.3 468.8-341.1 469.3 340.4z"/>
	<g id="Dossier 1">
		<path id="Layer" class="s1" d="m586.2 425.1h-88.2c-4.3 0-7.8 3.5-7.8 7.9 0 4.3 3.5 7.9 7.8 7.9h34.1v63.4c0 4.4 3.6 7.9 7.9 7.9 4.3 0 7.9-3.5 7.9-7.9v-63.4h38.3c4.3 0 7.8-3.6 7.8-7.9 0-4.4-3.5-7.9-7.8-7.9z"/>
		<g id="Layer">
			<path id="Layer" class="s2" d="m584.1 404.1c-15.9 0-28.9 13-28.9 28.9 0 15.9 13 28.8 28.9 28.8 15.9 0 28.8-12.9 28.8-28.8 0-15.9-12.9-28.9-28.8-28.9z"/>
			<path id="Layer" class="s2" d="m495.9 404.1c-15.9 0-28.8 13-28.8 28.9 0 15.9 12.9 28.8 28.8 28.8 15.9 0 28.9-12.9 28.9-28.8 0-15.9-13-28.9-28.9-28.9z"/>
		</g>
		<path id="SVGCleanerId_0" class="s3" d="m769.2 286.6h-63.4c-4.4 0-7.9 3.5-7.9 7.9v178.4c0 13-10.6 23.6-23.6 23.6h-269.1c-56.4 0-102.3 45.8-102.3 102.3v184.6c0 4.4 3.5 7.9 7.9 7.9h63.4c4.4 0 7.9-3.5 7.9-7.9v-184.6c0-13.1 10.6-23.7 23.6-23.7h269.1c56.4 0 102.3-45.8 102.3-102.2v-178.4c0-4.4-3.5-7.9-7.9-7.9z"/>
		<g id="Layer">
			<path id="SVGCleanerId_0_1_" class="s3" d="m769.2 286.6h-63.4c-4.4 0-7.9 3.5-7.9 7.9v178.4c0 13-10.6 23.6-23.6 23.6h-269.1c-56.4 0-102.3 45.8-102.3 102.3v184.6c0 4.4 3.5 7.9 7.9 7.9h63.4c4.4 0 7.9-3.5 7.9-7.9v-184.6c0-13.1 10.6-23.7 23.6-23.7h269.1c56.4 0 102.3-45.8 102.3-102.2v-178.4c0-4.4-3.5-7.9-7.9-7.9z"/>
		</g>
		<g id="Layer">
			<path id="Layer" class="s2" d="m506.4 477h-25.2c-4.3 0-7.8 3.6-7.8 7.9v100.7c0 4.4 3.5 7.9 7.8 7.9h25.2c4.4 0 7.9-3.5 7.9-7.9v-100.7c0-4.3-3.5-7.9-7.9-7.9z"/>
			<path id="Layer" class="s2" d="m598.8 477h-25.2c-4.4 0-7.9 3.6-7.9 7.9v100.7c0 4.4 3.5 7.9 7.9 7.9h25.2c4.3 0 7.8-3.5 7.8-7.9v-100.7c0-4.3-3.5-7.9-7.8-7.9z"/>
			<path id="Layer" class="s2" d="m788.1 318.1h-100.7c-4.3 0-7.9 3.5-7.9 7.9v25.1c0 4.4 3.6 7.9 7.9 7.9h100.7c4.4 0 7.9-3.5 7.9-7.9v-25.1c0-4.4-3.5-7.9-7.9-7.9z"/>
			<path id="Layer" class="s2" d="m392.6 718.9h-100.7c-4.4 0-7.9 3.5-7.9 7.9v25.1c0 4.4 3.5 7.9 7.9 7.9h100.7c4.3 0 7.9-3.5 7.9-7.9v-25.1c0-4.4-3.6-7.9-7.9-7.9z"/>
		</g>
		<g id="Layer">
			<path id="Layer" class="s4" d="m514.3 484.9c0-4.3-3.5-7.9-7.9-7.9h-25.2c-4.3 0-7.8 3.6-7.8 7.9v11.6h40.9z"/>
			<path id="Layer" class="s4" d="m473.4 585.6c0 4.4 3.5 7.9 7.8 7.9h25.2c4.4 0 7.9-3.5 7.9-7.9v-10.5h-40.9z"/>
			<path id="Layer" class="s4" d="m565.7 585.6c0 4.4 3.5 7.9 7.9 7.9h25.2c4.3 0 7.8-3.5 7.8-7.9v-10.5h-40.9z"/>
			<path id="Layer" class="s4" d="m606.6 484.9c0-4.3-3.5-7.9-7.8-7.9h-25.2c-4.4 0-7.9 3.6-7.9 7.9v11.6h40.9z"/>
			<path id="Layer" class="s4" d="m687.4 318.1c-4.3 0-7.9 3.5-7.9 7.9v25.1c0 4.4 3.6 7.9 7.9 7.9h10.5v-40.9z"/>
			<path id="Layer" class="s4" d="m788.1 318.1h-11v40.9h11c4.4 0 7.9-3.5 7.9-7.9v-25.1c0-4.4-3.5-7.9-7.9-7.9z"/>
			<path id="Layer" class="s4" d="m291.9 718.9c-4.4 0-7.9 3.5-7.9 7.9v25.1c0 4.4 3.5 7.9 7.9 7.9h11v-40.9z"/>
			<path id="Layer" class="s4" d="m392.6 759.8c4.3 0 7.9-3.5 7.9-7.9v-25.1c0-4.4-3.6-7.9-7.9-7.9h-10.5v40.9z"/>
		</g>
		<path id="Layer" class="s5" d="m546.4 602.5c-3.1-4.2-9.7-4.2-12.8 0-6.4 8.8-62.3 87-62.3 122.2 0 37.8 30.8 68.7 68.7 68.7 37.9 0 68.7-30.9 68.7-68.7 0-35.2-55.9-113.4-62.3-122.2z"/>
		<path id="Layer" class="s6" d="m562.6 775c-37.9 0-68.8-30.8-68.8-68.7 0-26.8 32.5-78.5 50.8-105.5-3.5-2.5-8.5-1.7-11 1.7-6.4 8.8-62.3 87-62.3 122.2 0 37.8 30.8 68.7 68.7 68.7 21.7 0 41-10.1 53.6-25.8-9.3 4.7-19.9 7.4-31 7.4z"/>
		<g id="Layer">
			<path id="Layer" class="s7" d="m548.4 766.6c-10.5 0-18.9-8.4-18.9-18.9 0-10.4 8.4-18.8 18.9-18.8 10.4 0 18.9 8.4 18.9 18.8 0 10.5-8.5 18.9-18.9 18.9z"/>
			<path id="Layer" class="s7" d="m565.2 718.4c-7 0-12.6-5.7-12.6-12.6 0-7 5.6-12.6 12.6-12.6 6.9 0 12.6 5.6 12.6 12.6 0 6.9-5.7 12.6-12.6 12.6z"/>
		</g>
	</g>
</svg>