<svg version="1.2" xmlns="http://www.w3.org/2000/svg" viewBox="0 0 1080 1080" width="1080" height="1080">
	<title>Nouveau projet</title>
	<style>
		.s0 { fill: #ffffff;stroke: #70a8d0;stroke-width: 10 } 
		.s1 { fill: #fecd57 } 
		.s2 { fill: #434a54 } 
		.s3 { fill: #f6bb42 } 
		.s4 { fill: #656d78 } 
	</style>
	<path id="Forme 1" class="s0" d="m830.4 926l-579.8 0.4-179.5-551.3 468.8-341.1 469.3 340.4z"/>
	<path id="Layer" class="s1" d="m604.5 509.3h-30.4l8.2-72.7 9-79.3-47.3 64.3-86.9 118.1-25 34h42.1 31.1l-6.1 73.1-6.6 77.5 45.2-63.3 84.1-118 24.1-33.7z"/>
	<g id="Layer">
		<path id="Layer" class="s2" d="m540 284c-141 0-255.3 114-255.9 254.8q-0.1 0.6-0.1 1.2c0 5.8 4.8 10.6 10.7 10.6 5.9 0 10.6-4.8 10.6-10.6h0.1c0-31.7 6.2-62.4 18.4-91.4 11.8-27.9 28.7-53 50.3-74.5 21.5-21.6 46.6-38.5 74.6-50.3 28.9-12.2 59.6-18.4 91.3-18.4 31.7 0 62.4 6.2 91.3 18.4 27.9 11.8 53 28.7 74.6 50.3q11.9 11.9 21.9 25.2l20.3-8.4c-46.5-64.7-122.4-106.9-208.1-106.9z"/>
		<path id="Layer" class="s2" d="m785.2 529.3c-5.9 0-10.6 4.8-10.6 10.7 0 31.6-6.2 62.4-18.4 91.3-11.9 27.9-28.8 53-50.3 74.5-21.6 21.6-46.7 38.5-74.6 50.3-28.9 12.3-59.6 18.5-91.3 18.5-31.7 0-62.4-6.2-91.3-18.5-28-11.8-53.1-28.7-74.6-50.3q-12-12-22.1-25.4l-20.3 8.3c46.5 64.9 122.4 107.2 208.3 107.2 141.3 0 255.9-114.6 255.9-255.9 0-5.9-4.8-10.7-10.7-10.7z"/>
	</g>
	<path id="Layer" class="s3" d="m591.3 357.3l-159.2 216.4h73.2l-12.7 150.6 41.3-173.2-60.1-1z"/>
	<g id="Layer">
		<path id="Layer" class="s4" d="m750.7 407.9c1.1-1.4 1.9-3.1 2.2-5q0.1-0.8 0.1-1.5v-74.7c0-5.9-4.8-10.7-10.7-10.7-5.9 0-10.6 4.8-10.6 10.7v64h-63.8c-5.8 0-10.6 4.8-10.6 10.7 0 5.8 4.8 10.6 10.6 10.6h74.4q0.8 0 1.6-0.1c1.8-0.3 3.5-1 5-2.1q0.1-0.1 0.2-0.2c0.1-0.1 0.2-0.2 0.4-0.3 0.1-0.2 0.2-0.3 0.4-0.4q0.2-0.2 0.3-0.4c0.1-0.1 0.3-0.2 0.3-0.4q0.1-0.1 0.2-0.2z"/>
		<path id="Layer" class="s4" d="m412 667.6h-74.4q-0.6 0-1.2 0.1c-4.2 0.4-7.6 3.4-8.9 7.3q0 0 0 0.1-0.1 0.3-0.2 0.6-0.1 0.2-0.1 0.4-0.2 1-0.2 2.2v74.9c0 5.9 4.8 10.7 10.6 10.7 5.9 0 10.7-4.8 10.7-10.7v-64.3h63.7c5.9 0 10.7-4.8 10.7-10.6 0-5.9-4.8-10.7-10.7-10.7z"/>
	</g>
</svg>