<svg version="1.2" xmlns="http://www.w3.org/2000/svg" viewBox="0 0 1080 1080" width="1080" height="1080">
	<title>Nouveau projet</title>
	<defs>
		<linearGradient id="g1" x1="549.5" y1="822.4" x2="549.5" y2="251.4" gradientUnits="userSpaceOnUse">
			<stop offset="0" stop-color="#ff4c0d"/>
			<stop offset="1" stop-color="#fc9502"/>
		</linearGradient>
	</defs>
	<style>
		.s0 { fill: #ffffff;stroke: #70a8d0;stroke-width: 10 } 
		.s1 { fill: url(#g1) } 
		.s2 { fill: #fc9502 } 
		.s3 { fill: #fce202 } 
	</style>
	<path id="Forme 1" class="s0" d="m830.4 926l-579.8 0.4-179.5-551.3 468.8-341.1 469.3 340.4z"/>
	<path id="path-1" fill-rule="evenodd" class="s1" d="m775 620.3c-5 112.2-104.2 201.7-225.9 201.7-124.9 0-226.1-97.5-226.1-210.6 0-15.2-0.3-45.4 24.1-96.4 14.5-30.5 23.7-49.7 28.8-67.2 2.9-9.7 8.4-25 24.1 0 9.3 14.7 9.6 35.8 9.6 35.8 0 0 34.5-24.6 57.7-71.7 34.2-69 6.9-110.2-2.4-138.9-3.2-9.9-5.2-27.8 16.9-20.2 22.5 7.8 82 46.5 113.1 87.4 44.3 58.4 60.1 114.3 60.1 114.3 0 0 14.2-16.4 19.2-33.6 5.7-19.4 5.8-38.6 24.1-17.9 17.4 19.7 43.2 56.7 57.7 91.8 26.4 63.9 19 125.5 19 125.5z"/>
	<path id="path-2" fill-rule="evenodd" class="s2" d="m549.1 822c-86.3 0-156.3-65.2-156.3-145.7 0-48.5 21-78 64.7-117.9 28-25.6 54.2-57 65.3-78.4 2.2-4.3 7.2-26.2 26.4-0.5 10.1 13.5 25.9 37.4 36 57.9 17.5 35.3 21.7 69.5 21.7 69.5 0 0 17.1-9.4 28.9-33.6 3.7-7.8 11.4-37.4 32.8-7.8 15.7 21.6 37.2 60.6 36.9 110.8 0 80.5-70 145.7-156.4 145.7z"/>
	<path id="path-3" fill-rule="evenodd" class="s3" d="m551.6 662.9c22.2 0 22.2 38.4 50.5 89.6 18.8 34.2-9.4 69.5-50.5 69.5-41.2 0-62.6-31.1-62.6-69.5 0-38.3 40.3-89.6 62.6-89.6z"/>
</svg>