<svg version="1.2" xmlns="http://www.w3.org/2000/svg" viewBox="0 0 1080 1080" width="1080" height="1080">
	<title>Nouveau projet</title>
	<defs>
		<linearGradient id="g1" x1="543.5" y1="879.5" x2="543.5" y2="137.5" gradientUnits="userSpaceOnUse">
			<stop offset="0" stop-color="#ff4c0d"/>
			<stop offset="1" stop-color="#fc9502"/>
		</linearGradient>
	</defs>
	<style>
		.s0 { fill: #ffffff;stroke: #70a8d0;stroke-width: 10 } 
		.s1 { opacity: .1;fill: url(#g1) } 
		.s2 { opacity: .1;fill: #fc9502 } 
		.s3 { opacity: .1;fill: #fce202 } 
		.s4 { fill: #f4b2b0 } 
		.s5 { fill: #b3404a } 
	</style>
	<path id="Forme 1" class="s0" d="m830.4 926l-579.8 0.4-179.5-551.3 468.8-341.1 469.3 340.4z"/>
	<g id="Dossier 2">
		<path id="path-1" fill-rule="evenodd" class="s1" d="m855.7 616.9c-7 145.8-144.3 262.1-312.7 262.1-172.9 0-313-126.7-313-273.7 0-19.7-0.4-59 33.3-125.2 20.2-39.7 32.8-64.6 40-87.4 3.9-12.5 11.5-32.4 33.3 0 12.8 19.1 13.3 46.6 13.3 46.6 0 0 47.7-32 79.9-93.2 47.2-89.7 9.5-143.3-3.3-180.5-4.5-12.9-7.3-36.1 23.3-26.2 31.1 10 113.4 60.4 156.5 113.5 61.4 75.8 83.2 148.5 83.2 148.5 0 0 19.7-21.3 26.7-43.6 7.8-25.3 8-50.2 33.3-23.3 24 25.6 59.8 73.6 79.9 119.4 36.5 83 26.3 163 26.3 163z"/>
		<path id="path-2" fill-rule="evenodd" class="s2" d="m543 879c-119.5 0-216.4-84.7-216.4-189.3 0-63.1 29-101.3 89.5-153.3 38.8-33.2 75-74.1 90.4-101.9 3.1-5.5 10-34 36.6-0.6 13.9 17.5 35.8 48.7 49.9 75.3 24.2 45.8 29.9 90.3 29.9 90.3 0 0 23.7-12.3 40-43.7 5.2-10.2 15.8-48.6 45.4-10.2 21.7 28.2 51.6 78.8 51.2 144.1 0 104.6-97 189.3-216.5 189.3z"/>
		<path id="path-3" fill-rule="evenodd" class="s3" d="m546.3 672.3c30.8 0 30.8 49.8 70 116.4 26 44.4-12.9 90.3-70 90.3-57 0-86.5-40.4-86.5-90.3 0-49.8 55.7-116.4 86.5-116.4z"/>
	</g>
	<path id="Layer" class="s4" d="m-114 215.4c-33.1 0-59.9-26.8-59.9-59.9 0-33.2 26.8-60 59.9-60 33.1 0 59.9 26.8 59.9 60 0 33.1-26.8 59.9-59.9 59.9z"/>
	<path id="Layer" class="s4" d="m540 726.4c-33.1 0-59.9-26.8-59.9-59.9 0-33.2 26.8-60 59.9-60 33.1 0 59.9 26.8 59.9 60 0 33.1-26.8 59.9-59.9 59.9z"/>
	<g id="Layer">
		<path id="Layer" fill-rule="evenodd" class="s5" d="m540 738c-41.1 0-74.5-33.4-74.5-74.5 0-41.1 33.4-74.5 74.5-74.5 41.1 0 74.5 33.4 74.5 74.5 0 41.1-33.4 74.5-74.5 74.5zm0-119.9c-25 0-45.4 20.4-45.4 45.4 0 25 20.4 45.3 45.4 45.3 25 0 45.4-20.3 45.4-45.3 0-25-20.4-45.4-45.4-45.4z"/>
		<path id="Layer" class="s5" d="m655.3 604.3c-3.7-7.1-12.6-9.8-19.7-6-7.1 3.8-9.8 12.6-6 19.7 7.7 14.5 11.8 30.9 11.8 47.5 0 27.5-10.9 53.3-30.6 72.5-19.7 19.2-45.7 29.4-73.3 28.8-54.6-1.3-98.9-46.8-98.9-101.5 0.1-38.5 21.6-73.2 56.1-90.5 5-2.5 8.1-7.5 8.1-13.1v-218.8c0-16.4 13.3-29.7 29.7-29.7h15c16.4 0 29.7 13.3 29.7 29.7v209.8c0 8 6.5 14.5 14.6 14.5 8.1 0 14.6-6.5 14.6-14.5v-17.5h35.1c8 0 14.5-6.5 14.5-14.6 0-8-6.5-14.6-14.5-14.6h-35.1v-22.7h13.8c8 0 14.5-6.5 14.5-14.5 0-8.1-6.5-14.6-14.5-14.6h-13.8v-22.7h35.1c8 0 14.5-6.5 14.5-14.6 0-8-6.5-14.6-14.5-14.6h-35.1v-22.7h13.8c8 0 14.5-6.5 14.5-14.5 0-8.1-6.5-14.6-14.5-14.6h-13.8v-7.6c0-32.5-26.4-58.9-58.9-58.9h-15c-32.5 0-58.9 26.4-58.9 58.9v210.2c-39.7 23.4-64.1 65.6-64.1 112.2-0.1 70.4 57 129 127.3 130.7q1.6 0 3.2 0c34.3 0 66.6-13.1 91.2-37.1 25.4-24.8 39.3-58 39.3-93.4 0-21.3-5.2-42.5-15.2-61.2z"/>
		<path id="Layer" class="s5" d="m7-14.3c-8.1 0-14.6-6.5-14.6-14.6v-83.6c0-8 6.5-14.5 14.6-14.5 8.1 0 14.6 6.5 14.6 14.5v83.6c0 8.1-6.5 14.6-14.6 14.6z"/>
	</g>
</svg>