<svg id="visual" viewBox="0 0 3840 2160" width="3840" height="2160" xmlns="http://www.w3.org/2000/svg" xmlns:xlink="http://www.w3.org/1999/xlink" version="1.1"><path d="M0 606L128 649.2C256 692.3 512 778.7 768 814.7C1024 850.7 1280 836.3 1536 796.7C1792 757 2048 692 2304 652.3C2560 612.7 2816 598.3 3072 620C3328 641.7 3584 699.3 3712 728.2L3840 757L3840 0L3712 0C3584 0 3328 0 3072 0C2816 0 2560 0 2304 0C2048 0 1792 0 1536 0C1280 0 1024 0 768 0C512 0 256 0 128 0L0 0Z" fill="#273053"></path><path d="M0 865L128 897.3C256 929.7 512 994.3 768 1016C1024 1037.7 1280 1016.3 1536 984C1792 951.7 2048 908.3 2304 922.7C2560 937 2816 1009 3072 1063C3328 1117 3584 1153 3712 1171L3840 1189L3840 755L3712 726.2C3584 697.3 3328 639.7 3072 618C2816 596.3 2560 610.7 2304 650.3C2048 690 1792 755 1536 794.7C1280 834.3 1024 848.7 768 812.7C512 776.7 256 690.3 128 647.2L0 604Z" fill="#6b6e89"></path><path d="M0 1513L128 1495C256 1477 512 1441 768 1473.3C1024 1505.7 1280 1606.3 1536 1610C1792 1613.7 2048 1520.3 2304 1491.7C2560 1463 2816 1499 3072 1535C3328 1571 3584 1607 3712 1625L3840 1643L3840 1187L3712 1169C3584 1151 3328 1115 3072 1061C2816 1007 2560 935 2304 920.7C2048 906.3 1792 949.7 1536 982C1280 1014.3 1024 1035.7 768 1014C512 992.3 256 927.7 128 895.3L0 863Z" fill="#b3b4c2"></path><path d="M0 2161L128 2161C256 2161 512 2161 768 2161C1024 2161 1280 2161 1536 2161C1792 2161 2048 2161 2304 2161C2560 2161 2816 2161 3072 2161C3328 2161 3584 2161 3712 2161L3840 2161L3840 1641L3712 1623C3584 1605 3328 1569 3072 1533C2816 1497 2560 1461 2304 1489.7C2048 1518.3 1792 1611.7 1536 1608C1280 1604.3 1024 1503.7 768 1471.3C512 1439 256 1475 128 1493L0 1511Z" fill="#ffffff"></path></svg>