<svg version="1.2" xmlns="http://www.w3.org/2000/svg" viewBox="0 0 866 683" width="866" height="683">
	<title>Statistics-svg</title>
	<style>
		.s0 { fill: #b5d5e3 } 
		.s1 { fill: #2f2e41 } 
		.s2 { fill: #f9b499 } 
		.s3 { fill: #f7a48b } 
		.s4 { fill: none;stroke: #b5d5e3 } 
		.s5 { opacity: .2;fill: #000000 } 
		.s6 { fill: #f4f4f4 } 
		.s7 { fill: #c2c4c6 } 
		.s8 { fill: none;stroke: #c2c4c6;stroke-width: .5 } 
		.s9 { fill: none;stroke: #f7a48b } 
		.s10 { fill: #000000 } 
		.s11 { fill: #3f4347 } 
		.s12 { fill: #5d6166 } 
		.s13 { fill: none;stroke: #9ea0a3 } 
	</style>
	<path id="Layer" class="s0" d="m699.1 304.5c-6.7-7.1-16.3 4.3-20.5 9-3.6 3.9-19.2 20.9-19.2 20.9l-23-19.7-11.6 13.1c0 0 27.6 30.6 34.8 33.2 10.5 3.9 25.4-22 35.7-31.2 10.4-9.3 8-20.9 3.8-25.3"/>
	<path id="Layer" class="s1" d="m752.2 387.5c3.7 15.8 7.4 16 1.8 91.9-0.5 5.9 2.7 28.5 1.9 54.7-0.7 20.2-2.9 27.4-2.9 27.4h-17c0 0-8.4-69.5-9.9-83.2-1.6-13.8-4.7-63.4-4.7-63.4h-3c0 0-2.5 9.6-10.5 62 0 0 2.6 32-7.1 82.1h-18.7c0 0-4.2-71.7-4.3-83-0.1-11.3 5.8-76.3 7.5-87.7 1.7-11.4 8.1-17.6 8.1-17.6l50.6-1.2c0 0 6.3 9.5 8.2 18z"/>
	<path id="Layer" class="s2" d="m683.5 559c0 0 0.5 9.9-1.2 11.5-2.5 2.3-18.1 7.8-23 9.5-2.4 0.9-4.1 2.2-4.8 3.9q-0.1 0.5-0.1 1.1 0.1 0.5 0.5 1 0.3 0.4 0.8 0.7 0.5 0.3 1.1 0.3h42.7c0 0 1.5-0.6 1.7-3.2 0.1-2.2-2.1-8.5-2.1-8.5-0.4-1.4 0.6-16.3 0.6-16.3z"/>
	<path id="Layer" class="s3" d="m683.5 559l16 3.9 0.2-3.9h-16.2z"/>
	<path id="Layer" class="s0" d="m700.3 579c0 0-0.3 2.1-3.5 2.1h-26.5c0 0-5.7-1.3-2.3-4.1 0 0-6.2 0.9-10.2 3.3-2.5 1.4-4.6 1.9-4.4 6.7l0.1 1h47.8c0 0 1.5-5.9-1-9z"/>
	<path id="Layer" class="s1" d="m653.5 588l0.1 2.3h34.5l5-2.3 0.2 2.3h6.5q0.3 0.1 0.6-0.1 0.3-0.1 0.5-0.3 0.2-0.2 0.3-0.5 0.1-0.3 0.1-0.6v-0.9z"/>
	<path id="Layer" class="s4" d="m681.5 570.2c0 0-1 6.8 9.2 12.3"/>
	<path id="Layer" class="s2" d="m736.7 561.7c0 0 0.5 9.8-1.2 11.5-2.5 2.3-18.1 7.8-22.9 9.5-2.5 0.8-4.2 2.2-4.8 3.9q-0.2 0.5-0.1 1 0.1 0.6 0.4 1 0.3 0.5 0.9 0.8 0.5 0.2 1.1 0.2h42.6c0 0 1.5-0.6 1.7-3.2 0.2-2.1-2-8.5-2-8.5-0.4-1.4 0.5-16.2 0.5-16.2z"/>
	<path id="Layer" class="s3" d="m736.7 561.7l16 3.8 0.2-3.8h-16.2z"/>
	<path id="Layer" class="s0" d="m753.5 581.7c0 0-0.2 2-3.4 2h-26.6c0 0-5.6-1.3-2.2-4.1 0 0-6.2 1-10.3 3.3-2.4 1.4-4.6 1.9-4.3 6.7v1h47.8c0 0 1.6-5.8-1-8.9z"/>
	<path id="Layer" class="s1" d="m706.7 590.6l0.1 2.4h34.5l5.1-2.4 0.1 2.4h6.6q0.3 0 0.6-0.1 0.2-0.1 0.4-0.3 0.3-0.3 0.4-0.5 0.1-0.3 0-0.6v-0.9z"/>
	<path id="Layer" class="s4" d="m734.8 572.9c0 0-1.1 6.8 9.1 12.3"/>
	<path id="Layer" class="s1" d="m740.7 316.6q-2.7 1.3-5.5 2.1-2.9 0.9-5.8 1.3-3 0.5-6 0.5-3 0-6-0.4-0.6-0.1-1.3-0.2c-9.6-1.7-20.6-1.6-22.4-16.2-1.8-14.7 11-22.2 12.1-28.9q0-0.6 0.1-1.2 0-0.7 0-1.3 0-0.7 0-1.3-0.1-0.6-0.2-1.3c-0.7-4.5-2.3-8.4 1.3-12.4 6.9-8 14-7.6 14-7.6 0 0 6.1-4.4 13.5 0.9 8 5.6 10.4 13.3 9.3 21.5q-0.2 1.9-0.4 3.7-0.2 1.9-0.3 3.8-0.1 1.9-0.2 3.7 0 1.9 0.1 3.8c0.1 2.6 0.8 5.4 3.1 11.3 2.3 5.8 0.7 15.3-5.4 18.2"/>
	<path id="Layer" class="s5" d="m717.4 320.1q-0.6-0.1-1.3-0.2c-9.6-1.7-20.6-1.6-22.4-16.2-1.8-14.7 11-22.2 12.1-28.9q0-0.6 0.1-1.2 0-0.7 0-1.3 0-0.7-0.1-1.3 0-0.6-0.1-1.3c10.2 1.4 23.7 6.9 28.5 15.3 0 0-2.6 3-0.3 8.2 2.5 5.8 7.8 5.3 5.8 14.1-0.9 4-11.4 6.9-22.3 12.8"/>
	<path id="Layer" class="s2" d="m711.1 287.7c0 0 1.3 5-0.5 8.6-1.8 3.7-4.1 4.9-4.1 4.9 0 0 3.9 7 13.9 6.8 10-0.2 13.2-7.4 13.2-7.4 0 0-2.8-0.5-4.1-4.1-1.2-3.6-0.4-10.1-0.4-10.1z"/>
	<path id="Layer" class="s6" d="m692.3 305.5c0 0 1 7.4 1.2 16.2 0.3 11.1-5.7 48-5.7 47.3 0 0 7.1 4.5 26.8 5.5q4.4 0.3 8.8 0 4.4-0.3 8.7-1.2 4.3-0.8 8.5-2.2 4.2-1.3 8.1-3.2c2.6-1.2 1.2-28.9 3.6-42.4 2.1-12 3.9-17.5 3.9-17.5l-24.8-8.6-11.4 8-11.3-8.2-16.4 6.3z"/>
	<path id="Layer" class="s3" d="m711.6 292.1c0 0-0.8 7.2 5.9 7.2 6.6 0 11.3-7.8 11.3-7.8z"/>
	<path id="Layer" class="s2" d="m705.5 268.7c0 0 1.1 12.8 1.7 16.1 0.6 3.4 5 11.4 10.7 12 5.6 0.7 12.7-5.6 14.9-8.8 2.1-3.2 3.8-12.7 4.3-16.3 0.5-3.6-0.9-17.1-13.6-18.6-12.6-1.5-17.1 8.4-18 15.6"/>
	<path id="Layer" class="s0" d="m703.9 300.2q-0.6 2-1.1 4-0.5 2.1-0.9 4.1-0.4 2.1-0.7 4.2-0.3 2.1-0.5 4.1c-1.7 20.3 0.6 56 0.5 73.1-0.1 17.1-0.6 29.8-0.6 29.8 0 0-19.3-0.6-20.2-10.7-1-10.1 6.5-30.7 7.4-39.8 0.4-4.6 3.7-64.9 3.7-66.3 7.2-1.9 7.3-1.6 12.4-2.5"/>
	<path id="Layer" class="s3" d="m725.6 269.2c0 0 5.8 2.1 8.5 4.7q0.5 0.4 0.8 0.9 0.4 0.5 0.6 1 0.3 0.5 0.4 1.1 0.1 0.5 0.1 1.1l1.3-5.4c0 0-3.6-4.6-11.7-3.4z"/>
	<path id="Layer" class="s1" d="m706.1 274.6q-0.2-1.3-0.1-2.5 0.1-1.3 0.4-2.6 0.3-1.2 0.8-2.4 0.5-1.2 1.1-2.3 0.7-1.1 1.6-2 0.8-0.8 1.9-1.6 1-0.7 2.2-1.2 1.2-0.4 2.4-0.7l4.6-9.6c0 0-10.9-1.9-16.4 5.7-9.6 13.1 1.5 19.2 1.5 19.2z"/>
	<path id="Layer" class="s1" d="m717 261.9c4 10.7 17.6 6.2 20.1 11.6 0 0 5.3-7.7-0.9-17-6.1-9.2-15.2-6.8-15.2-6.8 0 0-6.6 5.2-4 12.2z"/>
	<path id="Layer" class="s7" d="m701 372c0 0 4.9 2.6 17.6 2.6 12.8 0 24.4-5.4 24.4-5.4l-0.4 5.9c0 0-9.6 4.7-23.6 4.7-14 0-18.3-2.7-18.3-2.7l0.3-5z"/>
	<path id="Layer" class="s0" d="m736 300.5c0 0 1.6 4.3 1.5 16.6 0 13.7-0.5 102.4-0.5 102.4 0 0 17-3.5 19.8-9.8 2.7-6.2-7.6-33.7-8.1-41.8-0.5-8.8 11.1-49.9 11.3-58.9 0-0.7-24-8.5-24-8.5z"/>
	<path id="Layer" class="s7" d="m709.4 298.4l8.4 7.4-7.3 5.3c0 0-6.2-10.3-1.1-12.7"/>
	<path id="Layer" class="s7" d="m730.8 298.8l-8.7 7.2 6.6 5.6c0 0 6.5-10.8 2.1-12.8z"/>
	<path id="Layer" class="s8" d="m720 307.4c0 0-1.3 57.2-1.3 67.2"/>
	<path id="Layer" class="s2" d="m635 316.3l-8.9-7.4-7.4 7.4 7.5 9.9 8.8-9.9z"/>
	<path id="Layer" class="s2" d="m626.9 306c-0.3-1-4.4-11-6-13.5-1.6-2.5-4.9-1.7-4.6 0.2 0.2 1.9 2 7.1 2 7.1 0 0-8.5-6.2-9.3-6.8-2.2-1.5-3-2.6-5-2.5q-0.4 0.1-0.6 0.2-0.3 0.1-0.6 0.3-0.2 0.1-0.4 0.4-0.2 0.2-0.3 0.5-0.3-0.1-0.6 0-0.3 0-0.6 0.1-0.2 0.1-0.5 0.3-0.2 0.2-0.3 0.5c-0.8 1.2 0.8 2.5 0.8 2.5 0 0-0.8-0.3-1.9 0.9-1.4 1.4 0.4 2.9 0.4 2.9q-0.4 0.2-0.7 0.4-0.4 0.2-0.7 0.4-0.3 0.3-0.5 0.6-0.3 0.4-0.4 0.7c-0.4 1 0.6 1.7 6.8 6.2 1.2 0.9 5.7 5.1 7.2 6.3 6.6 5.6 9 5 9 5 0 0 8.4-6.5 6.8-12.7"/>
	<path id="Layer" class="s9" d="m602.1 291.9l12.5 8.8m-13.7-5.4l11.4 8.1m-12.9-4.3l10.2 7.1m8.1-4.5q-0.3 0.9-0.3 1.9 0 0.9 0.3 1.8 0.3 0.9 0.8 1.7 0.6 0.8 1.3 1.4m-4.7-8.1l-6.3 7.4"/>
	<path id="Layer" class="s4" d="m691.5 303.1c0 0-4.1 3.6-3.7 24.8"/>
	<g id="Layer" style="opacity: .2">
		<path id="Layer" class="s10" d="m687.4 327.9c-0.4-21.1 3.7-24.9 3.8-25l0.6 0.5c0 0.1-4 3.9-3.6 24.5z"/>
	</g>
	<path id="Layer" class="s11" d="m676.5 328l2.8-1.6-0.3 1.8-2.5-0.2z"/>
	<path id="Layer" class="s11" d="m711.8 370.4h-26.3q-0.4 0-0.7-0.2-0.4-0.1-0.7-0.3-0.2-0.3-0.4-0.6-0.2-0.3-0.2-0.7l-5.1-40.7q0-0.3 0.1-0.6 0-0.3 0.3-0.6 0.2-0.2 0.5-0.3 0.3-0.1 0.6-0.1h26.4q0.3 0 0.7 0.1 0.3 0.1 0.6 0.4 0.3 0.2 0.4 0.5 0.2 0.3 0.3 0.7l5 40.8q0.1 0.3 0 0.6-0.1 0.3-0.3 0.5-0.2 0.2-0.5 0.3-0.3 0.2-0.7 0.2z"/>
	<path id="Layer" class="s12" d="m709.5 370.4h-27.3q-0.4 0-0.7-0.2-0.4-0.1-0.6-0.3-0.3-0.3-0.5-0.6-0.2-0.3-0.2-0.7l-4.6-39.1q0-0.3 0.1-0.6 0.1-0.3 0.3-0.5 0.2-0.3 0.5-0.4 0.3-0.1 0.6-0.1h27.3q0.4 0 0.8 0.1 0.3 0.2 0.6 0.4 0.3 0.2 0.4 0.5 0.2 0.4 0.3 0.7l4.5 39.2q0.1 0.3 0 0.6-0.1 0.3-0.3 0.5-0.2 0.2-0.5 0.3-0.3 0.2-0.7 0.2z"/>
	<path id="Layer" class="s13" d="m696.9 349.1c0-1.3-0.9-2.6-2.2-3.1-1.3-0.5-2.9-0.2-3.9 0.7-1 1-1.3 2.5-0.7 3.7 0.5 1.3 1.8 2.1 3.2 2.1q0.7 0 1.4-0.2 0.6-0.3 1.1-0.8 0.5-0.5 0.8-1.1 0.3-0.6 0.3-1.3z"/>
	<path id="Layer" class="s11" d="m680 331.2c0 0.4-0.3 0.8-0.7 1-0.4 0.1-0.8 0-1.1-0.3-0.3-0.2-0.4-0.7-0.3-1.1 0.2-0.4 0.6-0.6 1-0.6q0.2 0 0.4 0.1 0.2 0 0.4 0.2 0.1 0.1 0.2 0.3 0.1 0.2 0.1 0.4z"/>
	<path id="Layer" class="s2" d="m717.3 370.5q-0.6 0.1-1.2 0.1-0.5 0-1.1-0.1-0.5 0-1.1-0.2-0.5-0.1-1-0.3c-1.9-0.8-1.9-1.8-3.5-2.2-1.5-0.4-4.4 0.1-5.5 0q-0.5-0.1-0.9-0.2-0.3-0.2-0.6-0.5-0.3-0.4-0.4-0.8-0.2-0.4-0.1-0.8-0.3-0.2-0.5-0.4-0.3-0.2-0.4-0.6-0.1-0.3-0.2-0.6 0-0.3 0.1-0.6c-0.5 0-1.5-0.8-0.7-2.2 0.2-0.4-0.5-0.2-0.6-1.2-0.1-1.5 2.9-2.9 2.9-2.9-1.7 0.3-2.5-1.2-2.1-1.8 0.4-0.7 4.2-3 4.7-3.1 0.5 0 3.3 0 4.4 0.5 1 0.5 3.9 3.1 3.9 3.1l8.4 5.9c0 0 0 6.9-4.6 8.9"/>
	<path id="Layer" class="s9" d="m708.2 364.6c0 0-4.2-0.1-6.2 0.9m5.7-3.8c0 0-4.9-0.3-6.8 1.5m6.3-4.6c0 0-5.6 0.3-7.1 2.8m2.5-4.4c0 0 2.4-1.4 2.5-1.5q0.3 0 0.6 0 0.3 0 0.5 0 0.3 0 0.6 0.1 0.3 0 0.5 0"/>
	<path id="Layer" class="s2" d="m721.8 361.6l7.7 2.2-5 10.4-7-3.8c0 0-2-7.2 4.3-8.8z"/>
	<path id="Layer" class="s0" d="m755.9 308.4c11.9 0.1 10.7 12.4 10.8 17.6 0.2 5.3 2 52.2-8.6 57.5-10.7 5.3-33.8-8.3-33.8-8.3l3.7-12.5 15.7 1.4c0 0 1.1-28.7 1.9-36.8 0.8-8.2 2.5-19 10.3-18.9z"/>
	<path id="Layer" class="s3" d="m725.9 362.8l-1.4 11.4 3.3-10.9-1.9-0.5z"/>
	<path id="Layer" class="s4" d="m760 309c0 0-7.1 0-9.2 5.3-2.1 5.2-5.2 50.3-5.2 50.3m-17.6-1.9l23.9 2.8m-27.6 9.7c0 0 14.6 9.3 28.5 9.5"/>
	<g id="Layer" style="opacity: .2">
		<path id="Layer" class="s10" d="m752.9 385.1c-13.9-0.2-28.6-9.5-28.8-9.6q0 0-0.1-0.1 0 0 0-0.1 0-0.1 0-0.2 0 0 0-0.1 0.1-0.1 0.1-0.1 0.1 0 0.2-0.1 0.1 0 0.1 0 0.1 0 0.2 0.1c0.1 0.1 14.7 9.2 28.3 9.4q0.1 0 0.1 0.1 0.1 0 0.1 0.1 0.1 0 0.1 0.1 0.1 0.1 0.1 0.1 0 0.1-0.1 0.2 0 0-0.1 0.1 0 0-0.1 0.1-0.1 0-0.1 0zm-1-19.2l-23.9-2.9q-0.1 0-0.2 0 0 0-0.1-0.1 0-0.1 0-0.1-0.1-0.1-0.1-0.2 0.1 0 0.1-0.1 0-0.1 0.1-0.1 0.1-0.1 0.1-0.1 0.1 0 0.2 0l17.2 2c0.3-4 3.2-45 5.2-50.2 2.1-5.4 9.4-5.5 9.5-5.5q0.1 0 0.2 0.1 0.1 0 0.1 0.1 0.1 0 0.1 0.1 0 0 0 0.1 0 0.1 0 0.2 0 0-0.1 0.1 0 0-0.1 0.1-0.1 0-0.2 0c0 0-6.8 0-8.8 5-1.9 4.9-4.9 46.6-5.1 50l5.9 0.7q0.1 0 0.2 0.2 0.1 0.1 0.1 0.2 0 0.2-0.1 0.3-0.1 0.1-0.3 0.1z"/>
	</g>
</svg>