<svg id="eWcQ7SrCsVI1" xmlns="http://www.w3.org/2000/svg" xmlns:xlink="http://www.w3.org/1999/xlink" viewBox="0 0 300 300" shape-rendering="geometricPrecision" text-rendering="geometricPrecision"><defs><filter id="eWcQ7SrCsVI3-filter" x="-150%" width="400%" y="-150%" height="400%"><feGaussianBlur id="eWcQ7SrCsVI3-filter-blur-0" stdDeviation="0,0" result="result"/></filter><filter id="eWcQ7SrCsVI5-filter" x="-150%" width="400%" y="-150%" height="400%"><feGaussianBlur id="eWcQ7SrCsVI5-filter-blur-0" stdDeviation="0,0" result="result"/></filter><filter id="eWcQ7SrCsVI6-filter" x="-150%" width="400%" y="-150%" height="400%"><feGaussianBlur id="eWcQ7SrCsVI6-filter-blur-0" stdDeviation="0,0" result="result"/></filter><filter id="eWcQ7SrCsVI9-filter" x="-150%" width="400%" y="-150%" height="400%"><feGaussianBlur id="eWcQ7SrCsVI9-filter-blur-0" stdDeviation="0,0" result="result"/></filter></defs><rect width="1.125493" height="0.562746" rx="0" ry="0" transform="translate(136.775464 183.455262)" opacity="0.73" fill="#d2dbed" stroke-width="0"/><ellipse rx="30" ry="30" transform="matrix(.281371 0 0 0.262618 33.792923 80.155634)" opacity="0.73" filter="url(#eWcQ7SrCsVI3-filter)" fill="#d2dbed" stroke-width="0"/><rect width="82.160946" height="78.221722" rx="39" ry="39" transform="matrix(.301357 0 0 0.334839 263.394364 228.799663)" opacity="0.73" fill="#273053" stroke-width="0"/><rect width="82.160946" height="78.221722" rx="39" ry="39" transform="matrix(.273957 0 0 0.279982 265.645574 69.205297)" opacity="0.73" filter="url(#eWcQ7SrCsVI5-filter)" fill="#273053" stroke-width="0"/><rect width="82.160946" height="78.221722" rx="39" ry="39" transform="matrix(.273957 0 0 0.279982 263.394364 150)" opacity="0.73" filter="url(#eWcQ7SrCsVI6-filter)" fill="#273053" stroke-width="0"/><path d="M295.469893,0.000005Q60.40453,41.608345,112.17742,83.556155t183.292473-83.556155" transform="matrix(.999855-.017016 0.017016 0.999855 3.02242 5.027653)" opacity="0.73" fill="#d2dbed" stroke="#d2dbed" stroke-width="0.6"/><path d="M295.469893,0.000005Q60.40453,41.608345,112.17742,83.556155t183.292473-83.556155" transform="matrix(-.940946 0.338558-.338558-.940946 280.143217 197.826785)" opacity="0.73" fill="#273053" stroke="#273053" stroke-width="0.6"/><ellipse rx="30" ry="30" transform="matrix(.281371 0 0 0.262618 33.792923 142.188615)" opacity="0.73" filter="url(#eWcQ7SrCsVI9-filter)" fill="#d2dbed" stroke-width="0"/></svg>
