<svg id="eUAtTSjxhfv1" xmlns="http://www.w3.org/2000/svg" xmlns:xlink="http://www.w3.org/1999/xlink" viewBox="0 0 300 300" shape-rendering="geometricPrecision" text-rendering="geometricPrecision"><ellipse rx="30" ry="30" transform="matrix(.266217 0.499198-.489139 0.260853 34.088 149.999999)" opacity="0.57" fill="#273053" stroke-width="0"/><ellipse rx="30" ry="30" transform="matrix(.563678 0 0 0.599109 261.020277 276.855531)" opacity="0.57" fill="#273053" stroke-width="0"/><ellipse rx="30" ry="30" transform="matrix(.574662 0 0 0.554349 255.982368 36.80315)" opacity="0.57" fill="#273053" stroke-width="0"/><path d="M-7.39556,289.338541c51.359774-42.996495,54.179011,171.584946,123.04292,62.57706" transform="matrix(1.298492-.100928 0.026947 0.346691 102.454827 121.779112)" fill="none" stroke="#3f5787" stroke-width="0.6"/><path d="M251.977858,162.280174C189.935536,186.791144,143.930855,130.535405,89.83497,150" fill="none" stroke="#3f5787" stroke-width="0.6"/><path d="M87.847174,194.379671c59.821377-34.569641,62.735197,214.086163,140.775311,184.458774" transform="matrix(1.298492-.100928 0.026948 0.346695-46.052852-13.752599)" fill="none" stroke="#3f5787" stroke-width="0.6"/><path d="" transform="matrix(1.298492-.100928 0.026948 0.346695-46.052852-13.752599)" fill="none" stroke="#3f5787" stroke-width="0.6"/></svg>
