<svg id="ebUjOZHpomg1" xmlns="http://www.w3.org/2000/svg" xmlns:xlink="http://www.w3.org/1999/xlink" viewBox="0 0 300 300" shape-rendering="geometricPrecision" text-rendering="geometricPrecision"><ellipse rx="30" ry="30" transform="matrix(.565748 0 0 0.554348 107.466258 133.36956)" opacity="0.57" fill="#273053" stroke-width="0"/><path d="M0,20.98164c69.649465-4.325465-49.680792,24.510971,125.159604,13.697307Q300,23.865283,300,23.865283" transform="matrix(.999579-.029016 0.071337 2.457491-1.466726-51.933704)" fill="#273053" stroke="#3f5787" stroke-width="0.6"/><path d="M0,20.98164c69.649465-4.325465-49.680792,24.510971,125.159604,13.697307Q300,23.865283,300,23.865283" transform="matrix(-.999133 0.041632-.102353-2.456395 303.533386 351.433168)" fill="#273053" stroke="#3f5787" stroke-width="0.6"/><ellipse rx="30" ry="30" transform="matrix(.565748 0 0 0.554348 268.950297 232.879968)" opacity="0.57" fill="#273053" stroke-width="0"/><ellipse rx="30" ry="30" transform="matrix(.565748 0 0 0.554348 273.275762 47.073209)" opacity="0.57" fill="#273053" stroke-width="0"/></svg>
