<svg id="ehoePDqi2Gr1" xmlns="http://www.w3.org/2000/svg" xmlns:xlink="http://www.w3.org/1999/xlink" viewBox="0 0 300 300" shape-rendering="geometricPrecision" text-rendering="geometricPrecision"><ellipse rx="30" ry="30" transform="matrix(.565748 0 0 0.554348 34.088001 150)" opacity="0.57" fill="#273053" stroke-width="0"/><ellipse rx="30" ry="30" transform="matrix(.563678 0 0 0.599109 261.020277 276.855531)" opacity="0.57" fill="#273053" stroke-width="0"/><ellipse rx="30" ry="30" transform="matrix(.574662 0 0 0.554349 251.977857 35.204043)" opacity="0.57" fill="#273053" stroke-width="0"/><path d="M68.928554,57.027184c28.840409,58.599977-20.100891,489.660397,46.718806,294.888417" transform="matrix(1.298492-.100928 0.026947 0.346691-46.052816-13.752135)" fill="none" stroke="#3f5787" stroke-width="0.6"/><path d="M167.693346,199.046629c-62.042321,24.51097,1.46939-121.928369-52.626495-102.463774" fill="none" stroke="#3f5787" stroke-width="0.6"/><path d="M68.928554,57.027184c28.840409,58.599977-18.976072,489.985137,47.843625,295.213158" transform="matrix(1.298492-.100928 0.026948 0.346695-46.052852-13.752599)" fill="none" stroke="#3f5787" stroke-width="0.6"/><path d="" transform="matrix(1.298492-.100928 0.026948 0.346695-46.052852-13.752599)" fill="none" stroke="#3f5787" stroke-width="0.6"/></svg>
